<svg width="376" height="348" viewBox="0 0 376 348" fill="none" xmlns="http://www.w3.org/2000/svg">
<path d="M303.138 0.830078H73.1484V230.43H303.138V0.830078Z" fill="white"/>
<path fill-rule="evenodd" clip-rule="evenodd" d="M81.458 144.78L137.588 144.79V160.98L114.678 160.94L81.458 222.13V144.78Z" fill="#E41315"/>
<path fill-rule="evenodd" clip-rule="evenodd" d="M160.998 144.79H294.838V222.13L262.128 160.91L160.998 160.97V144.79Z" fill="#E41315"/>
<path fill-rule="evenodd" clip-rule="evenodd" d="M81.458 9.12012H294.838V137.95H249.858L188.378 24.4501L127.158 137.95H81.458V9.12012Z" fill="#142233"/>
<path fill-rule="evenodd" clip-rule="evenodd" d="M137.589 122.11H239.739V137.95H153.409V167.82H239.739V183.95H137.589V122.11Z" fill="#142233"/>
<path fill-rule="evenodd" clip-rule="evenodd" d="M174.278 221.74L203.078 221.77L202.418 211.8L174.928 211.72L174.278 221.74Z" fill="#142233"/>
<path fill-rule="evenodd" clip-rule="evenodd" d="M175.519 202.71H201.819L201.149 192.44H176.199L175.519 202.7V202.71Z" fill="#142233"/>
<path fill-rule="evenodd" clip-rule="evenodd" d="M181.349 113.5H195.939L195.259 103.1H182.029L181.349 113.5Z" fill="#142233"/>
<path fill-rule="evenodd" clip-rule="evenodd" d="M182.589 94.3997H194.679L193.999 83.9997L183.279 83.9697L182.589 94.3997Z" fill="#142233"/>
<path fill-rule="evenodd" clip-rule="evenodd" d="M183.818 75.6999H193.448L192.738 64.9199H184.518L183.818 75.6999Z" fill="#142233"/>
<path fill-rule="evenodd" clip-rule="evenodd" d="M185.108 55.89H192.148L191.458 45.5H185.788L185.108 55.89Z" fill="#142233"/>
<path d="M269.094 346.373C269.094 334.828 269.094 323.346 269.094 311.802C269.3 311.775 269.497 311.73 269.694 311.73C275.202 311.73 280.71 311.721 286.218 311.748C287.893 311.757 289.576 311.837 291.198 312.285C294.359 313.172 296.598 315.124 297.547 318.295C298.595 321.797 297.019 325.514 293.84 327.412C293.562 327.583 293.284 327.735 292.89 327.968C293.419 328.174 293.849 328.317 294.261 328.496C296.858 329.616 298.703 331.434 299.383 334.228C300.512 338.894 297.789 344.573 292.227 345.88C290.553 346.274 288.842 346.328 287.14 346.346C281.247 346.409 275.345 346.4 269.452 346.418C269.371 346.418 269.282 346.391 269.094 346.373ZM276.5 340.498C276.706 340.515 276.832 340.542 276.948 340.542C279.581 340.542 282.215 340.569 284.848 340.533C286.066 340.515 287.311 340.489 288.511 340.292C290.087 340.032 291.296 339.154 291.789 337.578C292.55 335.151 291.618 332.303 288.349 331.694C287.096 331.461 285.797 331.38 284.516 331.353C282.098 331.299 279.671 331.326 277.244 331.326C277.011 331.326 276.778 331.353 276.509 331.371C276.5 334.416 276.5 337.417 276.5 340.498ZM276.492 325.415C276.635 325.469 276.689 325.505 276.742 325.505C280.029 325.469 283.316 325.442 286.603 325.37C287.472 325.352 288.305 325.057 289.048 324.564C290.472 323.615 290.839 322.236 290.597 320.641C290.383 319.199 289.505 318.25 288.126 317.865C287.355 317.65 286.54 317.552 285.743 317.543C282.788 317.498 279.823 317.507 276.868 317.498C276.76 317.498 276.644 317.543 276.509 317.569C276.492 320.203 276.492 322.791 276.492 325.415Z" fill="#142233"/>
<path d="M239.709 332.017C239.709 336.782 239.709 341.556 239.709 346.374C237.237 346.374 234.855 346.374 232.472 346.374C232.266 345.675 232.159 315.134 232.365 311.803C232.517 311.776 232.687 311.722 232.857 311.722C238.544 311.722 244.232 311.713 249.919 311.74C251.835 311.749 253.743 311.919 255.606 312.421C259.036 313.343 261.544 316.218 262.036 319.738C262.251 321.296 262.216 322.846 261.768 324.359C260.962 327.1 259.17 328.972 256.555 330.038C255.57 330.441 254.504 330.656 253.465 330.96C253.268 331.014 253.071 331.05 252.758 331.121C252.982 331.301 253.107 331.408 253.242 331.498C255.149 332.626 256.797 334.05 258.042 335.886C260.353 339.272 262.619 342.693 264.893 346.096C264.92 346.141 264.929 346.204 264.965 346.338C264.768 346.365 264.58 346.419 264.401 346.419C261.92 346.428 259.43 346.401 256.949 346.437C256.421 346.446 256.143 346.231 255.866 345.837C253.86 342.971 251.844 340.105 249.811 337.256C249.104 336.262 248.343 335.286 247.581 334.328C246.417 332.859 244.912 332.053 243.014 332.026C241.93 332.008 240.864 332.017 239.709 332.017ZM239.754 326.339C239.969 326.357 240.139 326.375 240.309 326.375C242.252 326.375 244.196 326.41 246.139 326.366C247.751 326.33 249.372 326.258 250.976 326.097C252.516 325.936 253.698 325.121 254.218 323.634C254.46 322.926 254.513 322.102 254.477 321.341C254.415 319.872 253.645 318.824 252.319 318.18C251.549 317.803 250.734 317.66 249.883 317.66C246.65 317.651 243.426 317.633 240.192 317.624C240.049 317.624 239.915 317.651 239.754 317.669C239.754 320.58 239.754 323.437 239.754 326.339Z" fill="#142233"/>
<path d="M129.129 311.779C129.129 313.714 129.129 315.586 129.129 317.458C129.094 317.493 129.076 317.511 129.049 317.538C129.031 317.556 129.004 317.583 128.977 317.583C128.923 317.601 128.861 317.61 128.798 317.619C128.735 317.628 128.682 317.628 128.619 317.628C122.305 317.637 115.982 317.646 109.668 317.664C109.641 317.664 109.614 317.681 109.524 317.708C109.524 320.189 109.524 322.679 109.524 325.258C115.588 325.258 121.624 325.258 127.723 325.258C127.723 327.238 127.723 329.137 127.723 331.143C121.678 331.143 115.624 331.143 109.515 331.143C109.515 334.322 109.515 337.385 109.515 340.538C116.268 340.538 122.994 340.538 129.694 340.538C129.882 341.245 129.935 345.007 129.783 346.386C120.594 346.386 111.396 346.386 102.145 346.386C102.145 334.878 102.145 323.387 102.145 311.896C102.789 311.681 126.908 311.591 129.129 311.779Z" fill="#142233"/>
<path d="M348.364 311.759C357.365 311.759 366.312 311.759 375.313 311.759C375.313 313.693 375.313 315.592 375.313 317.598C368.784 317.598 362.282 317.598 355.717 317.598C355.717 320.178 355.717 322.65 355.717 325.229C361.772 325.229 367.826 325.229 373.934 325.229C373.934 327.235 373.934 329.143 373.934 331.122C367.88 331.122 361.843 331.122 355.834 331.122C355.637 331.821 355.601 339.487 355.78 340.553C362.488 340.553 369.214 340.553 375.994 340.553C375.994 342.533 375.994 344.431 375.994 346.384C366.796 346.384 357.607 346.384 348.364 346.384C348.364 334.866 348.364 323.357 348.364 311.759Z" fill="#142233"/>
<path d="M224.987 321.647C222.542 321.754 220.159 321.853 217.741 321.96C217.607 321.495 217.49 321.065 217.356 320.644C216.774 318.808 215.556 317.635 213.666 317.223C211.579 316.775 209.501 316.784 207.468 317.482C206.913 317.67 206.358 317.957 205.883 318.297C204.576 319.247 204.432 321.011 205.623 322.113C206.134 322.587 206.788 322.999 207.442 323.205C209.313 323.814 211.212 324.352 213.129 324.826C215.538 325.436 217.956 326 220.222 327.039C222.712 328.185 224.655 329.923 225.533 332.583C227.396 338.234 224.718 343.617 219.64 345.686C218.108 346.313 216.505 346.68 214.857 346.841C211.893 347.137 208.946 347.128 206.026 346.429C201.056 345.238 198.038 342.103 196.811 337.177C196.739 336.891 196.676 336.595 196.622 336.299C196.56 335.95 196.515 335.592 196.443 335.108C198.826 334.884 201.181 334.661 203.581 334.437C203.716 334.92 203.832 335.35 203.958 335.78C204.943 339.085 207.191 340.849 210.639 341.037C212.081 341.118 213.514 341.073 214.911 340.661C216.004 340.339 216.935 339.784 217.687 338.924C218.314 338.207 218.699 337.374 218.717 336.407C218.735 335.234 218.296 334.266 217.284 333.684C216.487 333.227 215.627 332.833 214.75 332.583C212.215 331.875 209.654 331.275 207.11 330.594C205.516 330.164 203.967 329.6 202.542 328.758C200.303 327.451 198.709 325.606 198.047 323.071C197.088 319.399 198.548 315.637 201.701 313.47C203.259 312.404 204.996 311.768 206.841 311.464C210.397 310.864 213.944 310.899 217.419 311.912C220.67 312.852 223.088 314.804 224.369 318.02C224.861 319.256 225.049 320.438 224.987 321.647Z" fill="#142233"/>
<path d="M34.176 311.82C34.3282 311.775 34.4178 311.722 34.4984 311.722C36.8001 311.722 39.1018 311.722 41.52 311.722C41.529 312.062 41.5469 312.375 41.5469 312.698C41.5469 318.421 41.5379 324.135 41.5558 329.858C41.5648 331.596 41.6185 333.333 41.6991 335.062C41.8424 338.044 43.4993 340.024 46.4101 340.731C48.0669 341.134 49.7417 341.134 51.3986 340.758C54.0228 340.176 55.4737 338.519 55.6976 335.814C55.814 334.381 55.8767 332.948 55.8857 331.506C55.9036 325.281 55.8946 319.048 55.8946 312.823C55.8946 312.501 55.8946 312.169 55.8946 311.775C58.3486 311.775 60.7489 311.775 63.2118 311.775C63.2297 311.928 63.2745 312.098 63.2745 312.268C63.2655 319.093 63.2834 325.926 63.2297 332.751C63.2208 334.453 63.0775 336.163 62.8356 337.847C62.2445 341.985 59.8174 344.663 55.9394 346.024C54.7124 346.454 53.3959 346.732 52.0972 346.857C49.0163 347.144 45.9354 347.117 42.8992 346.409C41.1259 345.988 39.5317 345.182 38.1256 344.018C35.9672 342.227 34.7939 339.889 34.5521 337.113C34.373 335.089 34.2118 333.056 34.1939 331.022C34.1491 324.941 34.176 318.869 34.176 312.787C34.176 312.465 34.176 312.143 34.176 311.82Z" fill="#142233"/>
<path d="M7.66485 333.333C7.66485 337.722 7.66485 342.021 7.66485 346.365C5.16609 346.365 2.75689 346.365 0.293945 346.365C0.293945 334.838 0.293945 323.329 0.293945 311.766C0.526805 311.749 0.72384 311.722 0.920875 311.722C5.95423 311.731 10.9786 311.704 16.012 311.775C17.651 311.802 19.3168 311.928 20.911 312.286C24.7621 313.164 27.5565 316.442 28.067 320.364C28.2729 321.986 28.255 323.589 27.9237 325.183C27.037 329.509 23.3829 332.348 19.478 332.939C17.1315 333.297 14.7671 333.324 12.4027 333.333C11.1488 333.333 9.88598 333.333 8.63212 333.333C8.33657 333.333 8.04997 333.333 7.66485 333.333ZM7.69172 317.624C7.69172 320.947 7.69172 324.135 7.69172 327.404C8.50673 327.404 9.27696 327.422 10.0472 327.404C12.0444 327.35 14.0506 327.315 16.0478 327.189C17.4002 327.109 18.6093 326.562 19.5049 325.505C20.696 324.099 20.902 322.469 20.293 320.794C19.6661 319.066 18.2779 318.143 16.5135 317.875C15.3403 317.696 14.1312 317.669 12.94 317.642C11.2115 317.597 9.48295 317.624 7.69172 317.624Z" fill="#142233"/>
<path d="M158.451 311.752C161.075 311.752 163.619 311.752 166.288 311.752C161.926 323.332 157.6 334.859 153.256 346.395C150.632 346.395 148.026 346.395 145.348 346.395C141.031 334.886 136.705 323.368 132.344 311.77C135.066 311.77 137.664 311.77 140.351 311.77C143.378 320.189 146.414 328.644 149.45 337.098C149.513 337.098 149.575 337.098 149.629 337.089C152.576 328.661 155.504 320.243 158.451 311.752Z" fill="#142233"/>
<path d="M79.2064 317.643C75.5882 317.643 72.0684 317.643 68.5665 317.643C68.3516 316.98 68.2978 312.932 68.477 311.768C78.069 311.768 87.661 311.768 97.3247 311.768C97.3247 313.675 97.3247 315.574 97.3247 317.616C96.1604 317.625 94.9782 317.616 93.787 317.625C92.6227 317.625 91.4495 317.625 90.2852 317.625C89.094 317.625 87.9029 317.625 86.6311 317.625C86.6311 327.217 86.6311 336.756 86.6311 346.267C85.9146 346.473 81.1499 346.536 79.2064 346.375C79.1975 344.485 79.2064 342.586 79.2064 340.687C79.2064 338.771 79.2064 336.854 79.2064 334.937C79.2064 333.021 79.2064 331.104 79.2064 329.188C79.2064 327.271 79.2064 325.354 79.2064 323.438C79.2064 321.521 79.2064 319.613 79.2064 317.643Z" fill="#142233"/>
<path d="M317.2 335.681C319.493 335.43 321.741 335.179 324.043 334.929C324.15 335.717 324.24 336.451 324.347 337.186C324.383 337.418 324.437 337.651 324.5 337.884C325.073 339.899 326.488 341.001 328.566 341.01C329.103 341.01 329.64 340.947 330.169 340.84C331.45 340.562 332.291 339.801 332.65 338.52C333.089 336.944 333.142 335.332 333.142 333.71C333.151 326.734 333.151 319.757 333.151 312.78C333.151 312.457 333.151 312.135 333.151 311.768C335.605 311.768 337.988 311.768 340.442 311.768C340.459 312 340.495 312.224 340.495 312.457C340.495 319.73 340.522 327.011 340.477 334.284C340.468 335.833 340.325 337.4 340.03 338.923C339.286 342.828 336.832 345.273 333.097 346.402C330.267 347.261 327.357 347.261 324.491 346.572C320.568 345.622 317.997 342.694 317.379 338.574C317.263 337.803 317.227 337.024 317.165 336.254C317.156 336.075 317.191 335.896 317.2 335.681Z" fill="#142233"/>
<path d="M305.662 311.752C308.089 311.752 310.48 311.752 312.863 311.752C313.042 312.406 313.114 344.595 312.934 346.395C310.543 346.458 308.134 346.404 305.662 346.422C305.662 334.85 305.662 323.315 305.662 311.752Z" fill="#142233"/>
<path d="M169.887 311.759C172.323 311.759 174.705 311.759 177.141 311.759C177.141 323.303 177.141 334.821 177.141 346.375C174.723 346.375 172.341 346.375 169.887 346.375C169.887 334.866 169.887 323.357 169.887 311.759Z" fill="#142233"/>
<path d="M235.573 302.267V279.36H245.729C247.771 279.36 249.323 279.569 250.386 279.985C251.448 280.392 252.297 281.116 252.933 282.157C253.568 283.199 253.886 284.35 253.886 285.61C253.886 287.235 253.36 288.605 252.308 289.72C251.256 290.834 249.631 291.543 247.433 291.845C248.235 292.23 248.844 292.61 249.261 292.985C250.146 293.798 250.985 294.813 251.776 296.032L255.761 302.267H251.948L248.917 297.501C248.032 296.126 247.302 295.074 246.729 294.345C246.157 293.616 245.641 293.105 245.183 292.813C244.735 292.522 244.276 292.319 243.808 292.204C243.464 292.131 242.901 292.095 242.12 292.095H238.604V302.267H235.573ZM238.604 289.47H245.12C246.506 289.47 247.589 289.329 248.37 289.048C249.151 288.756 249.745 288.298 250.151 287.673C250.558 287.037 250.761 286.35 250.761 285.61C250.761 284.527 250.365 283.636 249.573 282.938C248.792 282.241 247.552 281.892 245.854 281.892H238.604V289.47Z" fill="#DA271E"/>
<path d="M210.067 302.267L218.864 279.36H222.13L231.505 302.267H228.052L225.38 295.329H215.802L213.286 302.267H210.067ZM216.677 292.86H224.442L222.052 286.517C221.323 284.59 220.781 283.006 220.427 281.767C220.135 283.235 219.724 284.694 219.192 286.142L216.677 292.86Z" fill="#DA271E"/>
<path d="M199.623 302.267V282.063H192.076V279.36H210.232V282.063H202.654V302.267H199.623Z" fill="#DA271E"/>
<path d="M169.039 302.267V279.36H172.148L184.18 297.345V279.36H187.086V302.267H183.977L171.945 284.267V302.267H169.039Z" fill="#DA271E"/>
<path d="M146.188 302.267V279.36H162.751V282.063H149.22V289.079H161.892V291.767H149.22V299.563H163.282V302.267H146.188Z" fill="#DA271E"/>
<path d="M137.745 294.235L140.776 295.001C140.141 297.491 138.995 299.392 137.339 300.704C135.693 302.006 133.677 302.657 131.292 302.657C128.823 302.657 126.813 302.157 125.261 301.157C123.719 300.147 122.542 298.688 121.729 296.782C120.927 294.876 120.526 292.829 120.526 290.642C120.526 288.256 120.979 286.178 121.886 284.407C122.802 282.626 124.099 281.277 125.776 280.36C127.464 279.433 129.318 278.97 131.339 278.97C133.631 278.97 135.558 279.553 137.12 280.72C138.683 281.886 139.771 283.527 140.386 285.642L137.401 286.345C136.87 284.678 136.099 283.465 135.089 282.704C134.078 281.944 132.808 281.563 131.276 281.563C129.516 281.563 128.042 281.985 126.854 282.829C125.677 283.673 124.849 284.808 124.37 286.235C123.891 287.652 123.651 289.116 123.651 290.626C123.651 292.574 123.933 294.277 124.495 295.735C125.068 297.183 125.953 298.267 127.151 298.985C128.349 299.704 129.646 300.063 131.042 300.063C132.74 300.063 134.177 299.574 135.354 298.595C136.532 297.616 137.328 296.162 137.745 294.235Z" fill="#DA271E"/>
</svg>
