<svg width="376" height="364" viewBox="0 0 376 364" fill="none" xmlns="http://www.w3.org/2000/svg">
<path d="M302.872 0.525391H72.8818V230.125H302.872V0.525391Z" fill="white"/>
<path fill-rule="evenodd" clip-rule="evenodd" d="M81.1914 144.476L137.321 144.486V160.676L114.411 160.636L81.1914 221.826V144.476Z" fill="#E41315"/>
<path fill-rule="evenodd" clip-rule="evenodd" d="M160.731 144.485H294.571V221.825L261.861 160.605L160.731 160.665V144.485Z" fill="#E41315"/>
<path fill-rule="evenodd" clip-rule="evenodd" d="M81.1914 8.81543H294.571V137.645H249.591L188.111 24.1454L126.891 137.645H81.1914V8.81543Z" fill="#142233"/>
<path fill-rule="evenodd" clip-rule="evenodd" d="M137.322 121.806H239.472V137.646H153.142V167.516H239.472V183.646H137.322V121.806Z" fill="#142233"/>
<path fill-rule="evenodd" clip-rule="evenodd" d="M174.012 221.435L202.812 221.465L202.152 211.495L174.662 211.415L174.012 221.435Z" fill="#142233"/>
<path fill-rule="evenodd" clip-rule="evenodd" d="M175.252 202.406H201.552L200.882 192.136H175.932L175.252 202.396V202.406Z" fill="#142233"/>
<path fill-rule="evenodd" clip-rule="evenodd" d="M181.082 113.195H195.672L194.992 102.795H181.762L181.082 113.195Z" fill="#142233"/>
<path fill-rule="evenodd" clip-rule="evenodd" d="M182.322 94.095H194.412L193.732 83.695L183.012 83.665L182.322 94.095Z" fill="#142233"/>
<path fill-rule="evenodd" clip-rule="evenodd" d="M183.552 75.3952H193.182L192.472 64.6152H184.252L183.552 75.3952Z" fill="#142233"/>
<path fill-rule="evenodd" clip-rule="evenodd" d="M184.842 55.5853H191.882L191.192 45.1953H185.522L184.842 55.5853Z" fill="#142233"/>
<path d="M268.827 331.273C268.827 319.729 268.827 308.247 268.827 296.702C269.033 296.675 269.23 296.63 269.427 296.63C274.935 296.63 280.443 296.621 285.951 296.648C287.626 296.657 289.31 296.738 290.931 297.186C294.092 298.072 296.331 300.025 297.281 303.195C298.329 306.697 296.752 310.414 293.573 312.313C293.295 312.483 293.018 312.635 292.624 312.868C293.152 313.074 293.582 313.217 293.994 313.397C296.591 314.516 298.436 316.334 299.117 319.129C300.245 323.795 297.523 329.473 291.961 330.781C290.286 331.175 288.575 331.228 286.874 331.246C280.981 331.309 275.079 331.3 269.185 331.318C269.105 331.318 269.015 331.291 268.827 331.273ZM276.234 325.398C276.44 325.416 276.565 325.443 276.682 325.443C279.315 325.443 281.948 325.47 284.581 325.434C285.799 325.416 287.044 325.389 288.244 325.192C289.82 324.932 291.029 324.054 291.522 322.478C292.283 320.051 291.352 317.203 288.083 316.594C286.829 316.361 285.53 316.28 284.25 316.254C281.831 316.2 279.404 316.227 276.977 316.227C276.744 316.227 276.512 316.254 276.243 316.271C276.234 319.317 276.234 322.317 276.234 325.398ZM276.225 310.316C276.368 310.369 276.422 310.405 276.476 310.405C279.763 310.369 283.05 310.342 286.336 310.271C287.205 310.253 288.038 309.957 288.781 309.465C290.205 308.515 290.573 307.136 290.331 305.542C290.116 304.1 289.238 303.151 287.859 302.765C287.089 302.55 286.274 302.452 285.477 302.443C282.521 302.398 279.557 302.407 276.601 302.398C276.494 302.398 276.377 302.443 276.243 302.47C276.225 305.103 276.225 307.691 276.225 310.316Z" fill="#142233"/>
<path d="M239.442 316.917C239.442 321.682 239.442 326.456 239.442 331.274C236.97 331.274 234.588 331.274 232.206 331.274C232 330.576 231.892 300.035 232.098 296.703C232.25 296.676 232.421 296.623 232.591 296.623C238.278 296.623 243.965 296.614 249.652 296.64C251.569 296.649 253.476 296.82 255.339 297.321C258.77 298.244 261.277 301.119 261.77 304.638C261.985 306.197 261.949 307.746 261.501 309.26C260.695 312 258.904 313.872 256.289 314.938C255.304 315.341 254.238 315.556 253.199 315.861C253.002 315.914 252.805 315.95 252.491 316.022C252.715 316.201 252.841 316.308 252.975 316.398C254.883 317.526 256.531 318.951 257.775 320.787C260.086 324.172 262.352 327.593 264.627 330.997C264.654 331.042 264.663 331.104 264.699 331.239C264.501 331.265 264.313 331.319 264.134 331.319C261.653 331.328 259.164 331.301 256.683 331.337C256.154 331.346 255.877 331.131 255.599 330.737C253.593 327.871 251.578 325.005 249.545 322.157C248.837 321.163 248.076 320.187 247.315 319.228C246.15 317.759 244.646 316.953 242.747 316.926C241.663 316.909 240.598 316.917 239.442 316.917ZM239.487 311.239C239.702 311.257 239.872 311.275 240.042 311.275C241.986 311.275 243.929 311.311 245.873 311.266C247.485 311.23 249.106 311.159 250.709 310.997C252.249 310.836 253.432 310.021 253.951 308.534C254.193 307.827 254.247 307.003 254.211 306.242C254.148 304.773 253.378 303.725 252.052 303.08C251.282 302.704 250.467 302.561 249.616 302.561C246.383 302.552 243.159 302.534 239.926 302.525C239.783 302.525 239.648 302.552 239.487 302.569C239.487 305.48 239.487 308.337 239.487 311.239Z" fill="#142233"/>
<path d="M128.863 296.68C128.863 298.614 128.863 300.486 128.863 302.358C128.827 302.394 128.809 302.412 128.782 302.439C128.764 302.456 128.737 302.483 128.711 302.483C128.657 302.501 128.594 302.51 128.531 302.519C128.469 302.528 128.415 302.528 128.352 302.528C122.038 302.537 115.715 302.546 109.401 302.564C109.374 302.564 109.347 302.582 109.258 302.609C109.258 305.09 109.258 307.579 109.258 310.159C115.321 310.159 121.358 310.159 127.457 310.159C127.457 312.138 127.457 314.037 127.457 316.043C121.411 316.043 115.357 316.043 109.249 316.043C109.249 319.223 109.249 322.286 109.249 325.438C116.002 325.438 122.728 325.438 129.427 325.438C129.615 326.146 129.669 329.907 129.517 331.287C120.328 331.287 111.13 331.287 101.878 331.287C101.878 319.778 101.878 308.287 101.878 296.796C102.523 296.581 126.642 296.492 128.863 296.68Z" fill="#142233"/>
<path d="M348.098 296.659C357.099 296.659 366.046 296.659 375.047 296.659C375.047 298.594 375.047 300.492 375.047 302.499C368.518 302.499 362.016 302.499 355.451 302.499C355.451 305.078 355.451 307.55 355.451 310.129C361.505 310.129 367.559 310.129 373.667 310.129C373.667 312.136 373.667 314.043 373.667 316.023C367.613 316.023 361.577 316.023 355.567 316.023C355.37 316.721 355.334 324.388 355.513 325.454C362.221 325.454 368.948 325.454 375.727 325.454C375.727 327.433 375.727 329.332 375.727 331.284C366.529 331.284 357.34 331.284 348.098 331.284C348.098 319.766 348.098 308.258 348.098 296.659Z" fill="#142233"/>
<path d="M224.72 306.547C222.275 306.655 219.893 306.753 217.474 306.861C217.34 306.395 217.224 305.965 217.089 305.544C216.507 303.708 215.289 302.535 213.399 302.123C211.313 301.675 209.235 301.684 207.202 302.383C206.646 302.571 206.091 302.857 205.617 303.198C204.309 304.147 204.166 305.912 205.357 307.013C205.867 307.488 206.521 307.9 207.175 308.106C209.047 308.715 210.945 309.252 212.862 309.727C215.271 310.336 217.689 310.9 219.955 311.939C222.445 313.085 224.389 314.823 225.266 317.483C227.129 323.134 224.451 328.517 219.373 330.586C217.842 331.213 216.239 331.58 214.591 331.741C211.626 332.037 208.68 332.028 205.76 331.329C200.789 330.138 197.771 327.004 196.544 322.078C196.472 321.791 196.41 321.495 196.356 321.2C196.293 320.851 196.248 320.492 196.177 320.009C198.559 319.785 200.915 319.561 203.315 319.337C203.449 319.821 203.566 320.251 203.691 320.68C204.676 323.985 206.924 325.75 210.372 325.938C211.814 326.018 213.247 325.974 214.644 325.562C215.737 325.239 216.668 324.684 217.421 323.824C218.048 323.108 218.433 322.275 218.451 321.307C218.469 320.134 218.03 319.167 217.018 318.585C216.221 318.128 215.361 317.734 214.483 317.483C211.949 316.775 209.387 316.175 206.844 315.495C205.249 315.065 203.7 314.501 202.276 313.659C200.037 312.351 198.443 310.506 197.78 307.971C196.822 304.299 198.281 300.538 201.434 298.37C202.992 297.305 204.73 296.669 206.575 296.364C210.13 295.764 213.677 295.8 217.152 296.812C220.403 297.752 222.821 299.705 224.102 302.92C224.595 304.156 224.783 305.338 224.72 306.547Z" fill="#142233"/>
<path d="M33.9094 296.721C34.0616 296.676 34.1512 296.622 34.2318 296.622C36.5335 296.622 38.8352 296.622 41.2534 296.622C41.2624 296.962 41.2803 297.276 41.2803 297.598C41.2803 303.321 41.2713 309.035 41.2892 314.759C41.2982 316.496 41.3519 318.234 41.4325 319.962C41.5758 322.945 43.2327 324.924 46.1435 325.631C47.8003 326.034 49.4751 326.034 51.132 325.658C53.7562 325.076 55.2071 323.419 55.431 320.714C55.5474 319.281 55.6101 317.848 55.6191 316.406C55.637 310.182 55.628 303.948 55.628 297.724C55.628 297.401 55.628 297.07 55.628 296.676C58.082 296.676 60.4823 296.676 62.9452 296.676C62.9631 296.828 63.0079 296.998 63.0079 297.168C62.9989 303.993 63.0168 310.827 62.9631 317.651C62.9542 319.353 62.8109 321.064 62.569 322.748C61.9779 326.885 59.5508 329.563 55.6728 330.925C54.4458 331.355 53.1293 331.632 51.8306 331.758C48.7497 332.044 45.6688 332.017 42.6326 331.31C40.8593 330.889 39.2651 330.083 37.859 328.918C35.7006 327.127 34.5273 324.79 34.2855 322.013C34.1064 319.989 33.9452 317.956 33.9273 315.923C33.8825 309.842 33.9094 303.769 33.9094 297.688C33.9094 297.365 33.9094 297.043 33.9094 296.721Z" fill="#142233"/>
<path d="M7.39825 318.234C7.39825 322.622 7.39825 326.921 7.39825 331.265C4.89949 331.265 2.49028 331.265 0.0273438 331.265C0.0273438 319.738 0.0273438 308.229 0.0273438 296.667C0.260204 296.649 0.457239 296.622 0.654274 296.622C5.68763 296.631 10.712 296.604 15.7454 296.676C17.3844 296.703 19.0502 296.828 20.6444 297.186C24.4955 298.064 27.2899 301.342 27.8004 305.265C28.0063 306.886 27.9884 308.489 27.6571 310.083C26.7704 314.409 23.1163 317.248 19.2114 317.839C16.8649 318.198 14.5005 318.225 12.1361 318.234C10.8822 318.234 9.61938 318.234 8.36552 318.234C8.06996 318.234 7.78337 318.234 7.39825 318.234ZM7.42512 302.524C7.42512 305.847 7.42512 309.035 7.42512 312.305C8.24013 312.305 9.01036 312.322 9.78059 312.305C11.7778 312.251 13.784 312.215 15.7812 312.09C17.1336 312.009 18.3427 311.463 19.2383 310.406C20.4294 309 20.6354 307.37 20.0264 305.695C19.3995 303.966 18.0113 303.044 16.2469 302.775C15.0737 302.596 13.8646 302.569 12.6734 302.542C10.9449 302.497 9.21635 302.524 7.42512 302.524Z" fill="#142233"/>
<path d="M158.184 296.652C160.808 296.652 163.352 296.652 166.021 296.652C161.659 308.233 157.333 319.76 152.99 331.295C150.366 331.295 147.759 331.295 145.081 331.295C140.765 319.786 136.439 308.269 132.077 296.67C134.8 296.67 137.397 296.67 140.084 296.67C143.111 305.089 146.147 313.544 149.183 321.999C149.246 321.999 149.309 321.999 149.363 321.99C152.309 313.562 155.238 305.143 158.184 296.652Z" fill="#142233"/>
<path d="M78.9398 302.543C75.3215 302.543 71.8018 302.543 68.2999 302.543C68.085 301.881 68.0312 297.832 68.2104 296.668C77.8024 296.668 87.3944 296.668 97.0581 296.668C97.0581 298.576 97.0581 300.474 97.0581 302.516C95.8938 302.525 94.7116 302.516 93.5204 302.525C92.3561 302.525 91.1829 302.525 90.0186 302.525C88.8274 302.525 87.6363 302.525 86.3645 302.525C86.3645 312.118 86.3645 321.656 86.3645 331.168C85.648 331.374 80.8833 331.436 78.9398 331.275C78.9309 329.385 78.9398 327.487 78.9398 325.588C78.9398 323.671 78.9398 321.755 78.9398 319.838C78.9398 317.921 78.9398 316.005 78.9398 314.088C78.9398 312.171 78.9398 310.255 78.9398 308.338C78.9398 306.421 78.9398 304.514 78.9398 302.543Z" fill="#142233"/>
<path d="M316.934 320.581C319.226 320.33 321.474 320.08 323.776 319.829C323.884 320.617 323.973 321.352 324.081 322.086C324.117 322.319 324.17 322.552 324.233 322.785C324.806 324.8 326.221 325.901 328.299 325.91C328.836 325.91 329.374 325.848 329.902 325.74C331.183 325.462 332.025 324.701 332.383 323.42C332.822 321.844 332.876 320.232 332.876 318.611C332.885 311.634 332.885 304.657 332.885 297.68C332.885 297.358 332.885 297.035 332.885 296.668C335.339 296.668 337.721 296.668 340.175 296.668C340.193 296.901 340.229 297.125 340.229 297.358C340.229 304.63 340.256 311.912 340.211 319.184C340.202 320.733 340.059 322.301 339.763 323.823C339.02 327.728 336.566 330.173 332.831 331.302C330.001 332.162 327.09 332.162 324.224 331.472C320.301 330.523 317.731 327.594 317.113 323.474C316.996 322.704 316.961 321.925 316.898 321.154C316.889 320.975 316.925 320.796 316.934 320.581Z" fill="#142233"/>
<path d="M305.396 296.652C307.823 296.652 310.214 296.652 312.596 296.652C312.775 297.306 312.847 329.495 312.668 331.295C310.277 331.358 307.867 331.304 305.396 331.322C305.396 319.751 305.396 308.215 305.396 296.652Z" fill="#142233"/>
<path d="M169.62 296.659C172.056 296.659 174.439 296.659 176.875 296.659C176.875 308.204 176.875 319.722 176.875 331.275C174.456 331.275 172.074 331.275 169.62 331.275C169.62 319.766 169.62 308.258 169.62 296.659Z" fill="#142233"/>
<path d="M235.307 363.267V340.36H245.463C247.505 340.36 249.057 340.569 250.119 340.985C251.182 341.392 252.031 342.116 252.666 343.157C253.301 344.199 253.619 345.35 253.619 346.61C253.619 348.235 253.093 349.605 252.041 350.72C250.989 351.834 249.364 352.543 247.166 352.845C247.968 353.23 248.577 353.61 248.994 353.985C249.88 354.798 250.718 355.813 251.51 357.032L255.494 363.267H251.682L248.65 358.501C247.765 357.126 247.036 356.074 246.463 355.345C245.89 354.616 245.374 354.105 244.916 353.813C244.468 353.522 244.01 353.319 243.541 353.204C243.197 353.131 242.635 353.095 241.854 353.095H238.338V363.267H235.307ZM238.338 350.47H244.854C246.239 350.47 247.322 350.329 248.104 350.048C248.885 349.756 249.479 349.298 249.885 348.673C250.291 348.037 250.494 347.35 250.494 346.61C250.494 345.527 250.098 344.636 249.307 343.938C248.525 343.241 247.286 342.892 245.588 342.892H238.338V350.47Z" fill="#DA271E"/>
<path d="M209.801 363.267L218.598 340.36H221.863L231.238 363.267H227.785L225.113 356.329H215.535L213.02 363.267H209.801ZM216.41 353.86H224.176L221.785 347.517C221.056 345.59 220.514 344.006 220.16 342.767C219.868 344.235 219.457 345.694 218.926 347.142L216.41 353.86Z" fill="#DA271E"/>
<path d="M199.356 363.267V343.063H191.81V340.36H209.966V343.063H202.388V363.267H199.356Z" fill="#DA271E"/>
<path d="M168.772 363.267V340.36H171.882L183.913 358.345V340.36H186.819V363.267H183.71L171.679 345.267V363.267H168.772Z" fill="#DA271E"/>
<path d="M145.922 363.267V340.36H162.484V343.063H148.953V350.079H161.625V352.767H148.953V360.563H163.016V363.267H145.922Z" fill="#DA271E"/>
<path d="M137.479 355.235L140.51 356.001C139.874 358.491 138.729 360.392 137.072 361.704C135.426 363.006 133.411 363.657 131.025 363.657C128.557 363.657 126.546 363.157 124.994 362.157C123.452 361.147 122.275 359.688 121.463 357.782C120.661 355.876 120.26 353.829 120.26 351.642C120.26 349.256 120.713 347.178 121.619 345.407C122.536 343.626 123.833 342.277 125.51 341.36C127.197 340.433 129.051 339.97 131.072 339.97C133.364 339.97 135.291 340.553 136.854 341.72C138.416 342.886 139.505 344.527 140.119 346.642L137.135 347.345C136.604 345.678 135.833 344.465 134.822 343.704C133.812 342.944 132.541 342.563 131.01 342.563C129.249 342.563 127.775 342.985 126.588 343.829C125.411 344.673 124.583 345.808 124.104 347.235C123.624 348.652 123.385 350.116 123.385 351.626C123.385 353.574 123.666 355.277 124.229 356.735C124.801 358.183 125.687 359.267 126.885 359.985C128.083 360.704 129.38 361.063 130.775 361.063C132.473 361.063 133.911 360.574 135.088 359.595C136.265 358.616 137.062 357.162 137.479 355.235Z" fill="#DA271E"/>
</svg>
