<svg width="421" height="350" viewBox="0 0 421 350" fill="none" xmlns="http://www.w3.org/2000/svg">
<path d="M144.766 278.97H147.797V299.173H159.734V278.97H162.781V299.173H164.875V308.235H162.188V301.876H144.766V278.97Z" fill="#DA271E"/>
<path d="M170.1 301.876V278.97H186.662V281.673H173.131V288.688H185.803V291.376H173.131V299.173H187.194V301.876H170.1Z" fill="#DA271E"/>
<path d="M193.075 301.876V278.97H196.106V288.376H208.013V278.97H211.044V301.876H208.013V291.079H196.106V301.876H193.075Z" fill="#DA271E"/>
<path d="M223.534 301.876V281.673H215.988V278.97H234.144V281.673H226.566V301.876H223.534Z" fill="#DA271E"/>
<path d="M235.291 301.876L244.088 278.97H247.353L256.728 301.876H253.275L250.603 294.938H241.025L238.509 301.876H235.291ZM241.9 292.47H249.666L247.275 286.126C246.546 284.199 246.004 282.616 245.65 281.376C245.358 282.845 244.947 284.303 244.416 285.751L241.9 292.47Z" fill="#DA271E"/>
<path d="M260.75 301.876V278.97H269.391C270.911 278.97 272.073 279.043 272.875 279.188C274 279.376 274.943 279.735 275.703 280.267C276.464 280.787 277.073 281.522 277.531 282.47C278 283.418 278.234 284.459 278.234 285.595C278.234 287.543 277.615 289.194 276.375 290.548C275.135 291.892 272.896 292.563 269.656 292.563H263.781V301.876H260.75ZM263.781 289.86H269.703C271.661 289.86 273.052 289.496 273.875 288.767C274.698 288.037 275.109 287.011 275.109 285.688C275.109 284.73 274.865 283.912 274.375 283.235C273.896 282.548 273.26 282.095 272.469 281.876C271.958 281.741 271.016 281.673 269.641 281.673H263.781V289.86Z" fill="#DA271E"/>
<path d="M325.495 0.830078H95.5049V230.43H325.495V0.830078Z" fill="white"/>
<path fill-rule="evenodd" clip-rule="evenodd" d="M103.814 144.78L159.944 144.79V160.98L137.034 160.94L103.814 222.13V144.78Z" fill="#E41315"/>
<path fill-rule="evenodd" clip-rule="evenodd" d="M183.354 144.79H317.194V222.13L284.484 160.91L183.354 160.97V144.79Z" fill="#E41315"/>
<path fill-rule="evenodd" clip-rule="evenodd" d="M103.814 9.12012H317.194V137.95H272.214L210.734 24.4501L149.514 137.95H103.814V9.12012Z" fill="#142233"/>
<path fill-rule="evenodd" clip-rule="evenodd" d="M159.945 122.11H262.095V137.95H175.765V167.82H262.095V183.95H159.945V122.11Z" fill="#142233"/>
<path fill-rule="evenodd" clip-rule="evenodd" d="M196.635 221.74L225.435 221.77L224.775 211.8L197.285 211.72L196.635 221.74Z" fill="#142233"/>
<path fill-rule="evenodd" clip-rule="evenodd" d="M197.875 202.71H224.175L223.505 192.44H198.555L197.875 202.7V202.71Z" fill="#142233"/>
<path fill-rule="evenodd" clip-rule="evenodd" d="M203.705 113.5H218.295L217.615 103.1H204.385L203.705 113.5Z" fill="#142233"/>
<path fill-rule="evenodd" clip-rule="evenodd" d="M204.945 94.3997H217.035L216.355 83.9997L205.635 83.9697L204.945 94.3997Z" fill="#142233"/>
<path fill-rule="evenodd" clip-rule="evenodd" d="M206.175 75.6999H215.805L215.095 64.9199H206.875L206.175 75.6999Z" fill="#142233"/>
<path fill-rule="evenodd" clip-rule="evenodd" d="M207.465 55.89H214.505L213.815 45.5H208.145L207.465 55.89Z" fill="#142233"/>
<path d="M133.7 349.07C133.7 337.57 133.7 326.1 133.7 314.59C133.86 314.57 134 314.54 134.14 314.54C139.84 314.55 145.53 314.52 151.23 314.59C152.74 314.61 154.28 314.76 155.74 315.13C158.84 315.92 161.02 317.89 161.99 320.96C163.11 324.52 161.51 328.32 158.21 330.24C157.96 330.39 157.71 330.53 157.37 330.73C157.78 330.87 158.07 330.97 158.37 331.09C163.33 332.97 165.11 337.54 163.61 342.1C162.36 345.89 159.7 348.2 155.73 348.73C153.64 349.01 151.51 349.06 149.4 349.08C144.39 349.13 139.38 349.11 134.37 349.11C134.16 349.11 133.95 349.08 133.7 349.07ZM141.07 343.21C141.25 343.22 141.39 343.25 141.53 343.25C144.16 343.25 146.78 343.27 149.41 343.24C150.6 343.22 151.8 343.19 152.97 343C154.51 342.76 155.71 341.92 156.23 340.39C157 338.12 156.33 335.1 152.85 334.42C151.6 334.18 150.3 334.11 149.03 334.08C146.58 334.02 144.14 334.05 141.69 334.05C141.49 334.05 141.29 334.08 141.07 334.1C141.07 337.16 141.07 340.16 141.07 343.21ZM141.07 328.17C141.2 328.22 141.26 328.26 141.31 328.26C144.56 328.22 147.81 328.2 151.06 328.13C151.93 328.11 152.76 327.84 153.5 327.35C154.81 326.49 155.29 325.25 155.14 323.73C154.98 322.14 154.13 321.07 152.59 320.64C151.85 320.43 151.06 320.34 150.3 320.33C147.32 320.29 144.34 320.29 141.36 320.29C141.28 320.29 141.2 320.34 141.08 320.38C141.07 322.97 141.07 325.56 141.07 328.17Z" fill="#142233"/>
<path d="M335.009 337.19C339.839 329.64 344.659 322.1 349.479 314.56C351.939 314.56 354.349 314.56 356.809 314.56C356.809 326.06 356.809 337.53 356.809 349.06C354.539 349.06 352.289 349.06 349.949 349.06C349.949 341.66 349.949 334.28 349.949 326.91C349.889 326.89 349.839 326.88 349.779 326.86C344.959 334.27 340.139 341.67 335.309 349.09C332.869 349.09 330.459 349.09 327.979 349.09C327.979 337.6 327.979 326.13 327.979 314.6C330.219 314.6 332.469 314.6 334.829 314.6C334.829 322.11 334.829 329.63 334.829 337.15C334.889 337.16 334.949 337.17 335.009 337.19Z" fill="#142233"/>
<path d="M298.89 320.3C298.89 323.04 298.89 325.63 298.89 328.33C299.24 328.33 299.55 328.33 299.87 328.33C303.21 328.34 306.55 328.31 309.9 328.36C311.72 328.38 313.53 328.64 315.27 329.23C318.88 330.45 321.54 333.93 321.84 337.73C322.15 341.62 320.77 344.73 317.67 347.08C316.12 348.26 314.31 348.72 312.42 348.91C311.12 349.04 309.8 349.1 308.49 349.1C303.21 349.12 297.93 349.11 292.64 349.11C292.31 349.11 291.99 349.11 291.67 349.11C291.46 348.39 291.36 317.65 291.55 314.66C292.17 314.49 317.56 314.45 318.65 314.62C318.65 316.48 318.65 318.34 318.65 320.3C312.07 320.3 305.52 320.3 298.89 320.3ZM298.9 343.24C299.11 343.26 299.28 343.28 299.45 343.28C301.93 343.28 304.4 343.31 306.88 343.27C308.1 343.25 309.33 343.18 310.53 343C312.62 342.69 314.18 340.95 314.22 338.89C314.26 336.79 313.36 335.32 311.08 334.7C310.19 334.46 309.27 334.27 308.36 334.25C305.32 334.17 302.28 334.18 299.23 334.16C299.12 334.16 299.01 334.2 298.89 334.23C298.9 337.25 298.9 340.22 298.9 343.24Z" fill="#142233"/>
<path d="M177.46 337.19C182.28 329.66 187.1 322.12 191.93 314.56C194.35 314.56 196.76 314.56 199.23 314.56C199.23 326.03 199.23 337.5 199.23 349.04C197.02 349.04 194.8 349.04 192.56 349.04C192.56 349.04 192.53 349.02 192.51 349C192.49 348.98 192.47 348.95 192.47 348.93C192.46 348.81 192.44 348.69 192.44 348.58C192.44 341.36 192.44 334.14 192.44 326.93C192.39 326.91 192.37 326.89 192.34 326.88C192.31 326.88 192.28 326.88 192.26 326.89C192.21 326.92 192.17 326.96 192.14 327.01C187.36 334.36 182.57 341.7 177.78 349.07C175.33 349.07 172.9 349.07 170.42 349.07C170.42 337.55 170.42 326.08 170.42 314.57C172.7 314.57 174.93 314.57 177.25 314.57C177.25 322.12 177.25 329.64 177.25 337.17C177.32 337.17 177.39 337.18 177.46 337.19Z" fill="#142233"/>
<path d="M126.71 314.58C126.71 316.54 126.71 318.42 126.71 320.37C120.21 320.37 113.75 320.37 107.16 320.37C107.15 322.94 107.15 325.42 107.16 327.99C113.24 327.99 119.25 327.99 125.31 327.99C125.31 329.97 125.31 331.87 125.31 333.86C119.3 333.86 113.29 333.86 107.22 333.86C107.22 337.01 107.22 340.07 107.22 343.21C113.91 343.21 120.61 343.21 127.38 343.21C127.38 345.19 127.38 347.08 127.38 348.97C126.78 349.14 101.41 349.21 99.8301 349.04C99.8301 337.58 99.8301 326.1 99.8301 314.58C108.78 314.58 117.71 314.58 126.71 314.58Z" fill="#142233"/>
<path d="M399.93 328.01C406 328.01 412.02 328.01 418.08 328.01C418.08 329.98 418.08 331.87 418.08 333.84C412.05 333.84 406.04 333.84 399.9 333.84C399.86 336.99 399.89 340.07 399.88 343.24C406.67 343.24 413.36 343.24 420.12 343.24C420.12 345.22 420.12 347.11 420.12 349.05C410.95 349.05 401.8 349.05 392.59 349.05C392.59 337.58 392.59 326.11 392.59 314.58C401.51 314.58 410.45 314.58 419.44 314.58C419.44 316.47 419.44 318.36 419.44 320.39C418.13 320.4 416.84 320.39 415.54 320.4C414.26 320.4 412.97 320.4 411.69 320.4C410.38 320.4 409.06 320.4 407.75 320.4C406.47 320.4 405.18 320.4 403.9 320.4C402.59 320.4 401.29 320.4 399.93 320.4C399.93 322.94 399.93 325.41 399.93 328.01Z" fill="#142233"/>
<path d="M29.6799 349.07C27.2299 349.07 24.8499 349.07 22.3899 349.07C22.3899 339.5 22.3899 329.96 22.3899 320.38C17.6299 320.38 12.9699 320.38 8.20988 320.38C8.20988 329.94 8.20988 339.47 8.20988 349.06C5.71988 349.06 3.32988 349.06 0.879883 349.06C0.879883 337.55 0.879883 326.08 0.879883 314.57C10.4899 314.57 20.0599 314.57 29.6799 314.57C29.6799 326.06 29.6799 337.53 29.6799 349.07Z" fill="#142233"/>
<path d="M257.56 314.56C257.76 314.55 257.9 314.53 258.05 314.53C263.12 314.54 268.2 314.53 273.27 314.57C274.55 314.58 275.83 314.7 277.1 314.88C281.46 315.49 284.81 319 285.25 323.39C285.4 324.85 285.38 326.3 285.12 327.76C284.33 332.06 280.75 335.05 276.68 335.68C274.25 336.06 271.81 336.07 269.36 336.07C267.9 336.07 266.44 336.07 264.9 336.07C264.9 340.41 264.9 344.69 264.9 348.95C264.19 349.15 259.37 349.21 257.56 349.06C257.56 337.59 257.56 326.12 257.56 314.56ZM264.88 330.21C267.48 330.15 270.01 330.1 272.53 330.02C273.09 330 273.66 329.89 274.2 329.76C276.24 329.26 277.66 327.57 277.75 325.57C277.85 323.3 276.69 321.53 274.55 320.86C273.79 320.62 272.97 320.51 272.18 320.48C269.95 320.41 267.71 320.42 265.47 320.4C265.28 320.4 265.08 320.45 264.88 320.49C264.88 323.7 264.88 326.86 264.88 330.21Z" fill="#142233"/>
<path d="M244.16 336.39C246.52 337.1 248.85 337.81 251.23 338.53C249.8 343.39 247.18 347.1 242.27 348.75C238.52 350.01 234.69 350.1 230.91 348.97C225.64 347.4 222.1 343.9 220.5 338.66C219.04 333.88 219.13 329.02 220.81 324.32C222.9 318.5 227.19 315.18 233.25 314.18C236.29 313.68 239.32 313.79 242.28 314.74C246.8 316.19 249.72 319.22 251.05 323.77C251.07 323.82 251.06 323.89 251.07 324.07C248.7 324.61 246.31 325.16 243.92 325.7C243.84 325.5 243.78 325.4 243.74 325.29C242.79 322.21 240.67 320.44 237.51 320.01C234.54 319.6 231.89 320.34 229.76 322.58C228.79 323.6 228.16 324.82 227.82 326.17C226.85 330.07 226.83 333.99 227.97 337.84C229.74 343.81 236.14 344.76 239.73 342.86C241.48 341.93 242.62 340.49 243.35 338.7C243.64 337.95 243.88 337.18 244.16 336.39Z" fill="#142233"/>
<path d="M38.3301 344.02C39.0801 344.02 39.7901 344.05 40.5001 344.01C41.5101 343.95 42.5201 343.88 43.5101 343.72C44.3001 343.59 44.9801 343.14 45.3801 342.44C45.8901 341.54 46.3001 340.57 46.7701 339.65C46.9401 339.31 46.7401 339.08 46.6001 338.83C45.7101 337.17 44.8201 335.52 43.9301 333.87C40.6401 327.75 37.3401 321.64 34.0501 315.52C33.9001 315.24 33.7601 314.95 33.5801 314.59C36.3401 314.59 39.0101 314.59 41.7801 314.59C44.5501 320.46 47.3501 326.37 50.2101 332.44C52.6601 326.38 55.0401 320.47 57.4101 314.59C59.9701 314.59 62.4601 314.59 65.0501 314.59C64.9101 314.93 64.8101 315.2 64.6801 315.46C60.7501 323.89 56.8201 332.32 52.8801 340.74C51.9201 342.8 50.8201 344.77 49.4101 346.57C47.8301 348.59 45.7901 349.63 43.2101 349.53C41.8701 349.48 40.5301 349.39 39.1901 349.31C38.9001 349.29 38.6101 349.21 38.3101 349.15C38.3301 347.39 38.3301 345.7 38.3301 344.02Z" fill="#142233"/>
<path d="M95.0502 314.57C95.0502 316.52 95.0502 318.39 95.0502 320.39C93.8602 320.41 92.6802 320.4 91.5002 320.4C90.3402 320.4 89.1702 320.4 88.0102 320.4C86.8202 320.4 85.6302 320.4 84.3602 320.4C84.3602 329.96 84.3602 339.46 84.3602 348.94C83.6702 349.14 78.6902 349.21 76.9902 349.04C76.9902 339.53 76.9902 330 76.9902 320.39C73.3502 320.39 69.8102 320.39 66.2402 320.39C66.2402 318.41 66.2402 316.51 66.2402 314.57C75.8302 314.57 85.3902 314.57 95.0502 314.57Z" fill="#142233"/>
<path d="M361.55 338.4C363.86 338.15 366.07 337.9 368.34 337.66C368.46 338.5 368.54 339.29 368.69 340.07C369.33 343.25 372.47 344.72 375.37 343.22C376.2 342.79 376.68 342.11 376.93 341.24C377.33 339.88 377.39 338.48 377.39 337.08C377.4 329.92 377.39 322.76 377.39 315.6C377.39 315.28 377.39 314.95 377.39 314.58C379.84 314.58 382.22 314.58 384.66 314.58C384.68 314.79 384.73 315.01 384.73 315.24C384.73 322.4 384.76 329.56 384.71 336.72C384.7 338.32 384.57 339.95 384.29 341.52C383.58 345.45 381.14 347.93 377.39 349.08C374.54 349.95 371.61 349.98 368.73 349.23C364.73 348.2 362.48 345.5 361.73 341.49C361.56 340.49 361.45 339.49 361.55 338.4Z" fill="#142233"/>
</svg>
